<svg width="18" height="17" viewBox="0 0 18 17" fill="none" xmlns="http://www.w3.org/2000/svg">
<path fill-rule="evenodd" clip-rule="evenodd" d="M2.6237 0.222656H15.957C16.8775 0.222656 17.6237 0.968848 17.6237 1.88932V15.2227C17.6237 16.1431 16.8775 16.8893 15.957 16.8893H2.6237C1.70322 16.8893 0.957031 16.1431 0.957031 15.2227V1.88932C0.957031 0.968848 1.70322 0.222656 2.6237 0.222656ZM2.62427 1.89062V15.224H15.9576V1.89062H2.62427ZM8.56812 8.55835H10.1239V13.5547H11.7906V8.55835H13.4426V6.89168H11.7906V6.05469C11.7906 5.59445 12.1637 5.22135 12.6239 5.22135H13.4572V3.55469H12.6239C11.2432 3.55469 10.1239 4.67398 10.1239 6.05469V6.89168H8.56812V8.55835Z" fill="#333333"/>
</svg>
