<svg width="25" height="25" viewBox="0 0 25 25" fill="none" xmlns="http://www.w3.org/2000/svg">
<path d="M23.6289 10.1523C24.1289 10.8398 24.3789 11.6211 24.3789 12.4961C24.3789 13.3711 24.1289 14.168 23.6289 14.8867C23.1289 15.5742 22.4883 16.0586 21.707 16.3398C22.0508 17.0898 22.1445 17.9023 21.9883 18.7773C21.8633 19.6211 21.4883 20.3555 20.8633 20.9805C20.2383 21.6055 19.5039 21.9805 18.6602 22.1055C17.8164 22.2617 17.0039 22.168 16.2227 21.8242C16.0352 22.3555 15.7539 22.8086 15.3789 23.1836C15.0039 23.5898 14.5508 23.9023 14.0195 24.1211C13.5195 24.3711 12.9727 24.4961 12.3789 24.4961C11.5039 24.4961 10.707 24.2461 9.98828 23.7461C9.30078 23.2461 8.81641 22.6055 8.53516 21.8242C7.75391 22.168 6.94141 22.2617 6.09766 22.1055C5.25391 21.9805 4.51953 21.6055 3.89453 20.9805C3.26953 20.3555 2.87891 19.6211 2.72266 18.7773C2.59766 17.9023 2.70703 17.0898 3.05078 16.3398C2.26953 16.0586 1.62891 15.5742 1.12891 14.8867C0.628906 14.168 0.378906 13.3711 0.378906 12.4961C0.378906 11.6211 0.628906 10.8398 1.12891 10.1523C1.62891 9.43359 2.26953 8.93359 3.05078 8.65234C2.70703 7.90234 2.59766 7.10547 2.72266 6.26172C2.87891 5.38672 3.26953 4.63672 3.89453 4.01172C4.51953 3.38672 5.25391 3.01172 6.09766 2.88672C6.97266 2.73047 7.78516 2.82422 8.53516 3.16797C8.81641 2.38672 9.30078 1.74609 9.98828 1.24609C10.707 0.746094 11.5039 0.496094 12.3789 0.496094C13.2539 0.496094 14.0352 0.746094 14.7227 1.24609C15.4414 1.74609 15.9414 2.38672 16.2227 3.16797C16.9727 2.82422 17.7695 2.73047 18.6133 2.88672C19.4883 3.01172 20.2383 3.38672 20.8633 4.01172C21.4883 4.63672 21.8633 5.38672 21.9883 6.26172C22.1445 7.10547 22.0508 7.90234 21.707 8.65234C22.4883 8.93359 23.1289 9.43359 23.6289 10.1523ZM17.582 10.4336C17.832 10.1836 17.832 9.93359 17.582 9.68359L16.3633 8.46484C16.1445 8.21484 15.9102 8.21484 15.6602 8.46484L11.1133 13.0117L9.14453 10.9961C8.89453 10.7461 8.64453 10.7461 8.39453 10.9961L7.17578 12.2148C6.92578 12.4648 6.92578 12.6992 7.17578 12.918L10.7383 16.5273C10.957 16.7461 11.1914 16.7461 11.4414 16.5273L17.582 10.4336Z" fill="#0085FF"/>
</svg>
